<?xml version="1.0" encoding="UTF-8" standalone="no"?>
<svg
   xmlns:dc="http://purl.org/dc/elements/1.1/"
   xmlns:cc="http://creativecommons.org/ns#"
   xmlns:rdf="http://www.w3.org/1999/02/22-rdf-syntax-ns#"
   xmlns:svg="http://www.w3.org/2000/svg"
   xmlns="http://www.w3.org/2000/svg"
   viewBox="0 0 666.66669 666.66669"
   height="666.66669"
   width="666.66669"
   xml:space="preserve"
   id="svg2"
   version="1.1"><metadata
     id="metadata8"><rdf:RDF><cc:Work
         rdf:about=""><dc:format>image/svg+xml</dc:format><dc:type
           rdf:resource="http://purl.org/dc/dcmitype/StillImage" /></cc:Work></rdf:RDF></metadata><defs
     id="defs6"><clipPath
       id="clipPath18"
       clipPathUnits="userSpaceOnUse"><path
         id="path16"
         d="M 0,500 H 500 V 0 H 0 Z" /></clipPath></defs><g
     transform="matrix(1.3333333,0,0,-1.3333333,0,666.66667)"
     id="g10"><g
       id="g12"><g
         clip-path="url(#clipPath18)"
         id="g14"><path
           id="path20"
           style="fill:#0c2e82;fill-opacity:1;fill-rule:nonzero;stroke:none"
           d="M 117.46,232.8 H 80.227 v 36.911 h 37.233 z m 4.914,53.771 v 0.058 h -2.237 c -0.084,0 -0.158,0.007 -0.241,0.007 v -0.007 H 75.062 c -15.356,0 -23.025,-6.194 -23.025,-18.576 v -34.102 c 0,-12.304 7.669,-18.46 23.025,-18.46 h 44.893 v 0.021 c 15.298,0.019 22.955,6.165 22.955,18.439 v 34.102 c 0,11.711 -6.849,17.877 -20.536,18.518" /><path
           id="path22"
           style="fill:#0c2e82;fill-opacity:1;fill-rule:nonzero;stroke:none"
           d="m 320.957,267.509 h -37.401 v -20.245 h 37.401 z m 26.717,-51.767 H 320.957 V 234.38 H 283.556 V 215.742 H 256.853 V 270.5 c 0,4.671 1.751,8.382 5.286,11.158 3.444,2.696 8.367,4.039 14.767,4.039 h 50.833 c 6.401,0 11.318,-1.343 14.762,-4.039 3.452,-2.692 5.173,-6.425 5.173,-11.158 z" /><path
           id="path24"
           style="fill:#0c2e82;fill-opacity:1;fill-rule:nonzero;stroke:none"
           d="M 420.578,249.379 H 386.6 v 18.129 h 33.978 z m 22.879,32.812 c -2.696,2.142 -6.848,3.288 -12.414,3.47 l 0.095,0.024 h -1.044 c -0.223,0.004 -0.427,0.012 -0.666,0.012 h -47.543 l -0.021,-0.012 h -1.551 c -6.401,0 -11.32,-1.333 -14.767,-4.037 -3.445,-2.682 -5.192,-6.306 -5.282,-10.821 h -0.008 v -0.167 c 0,-0.071 -0.006,-0.116 -0.006,-0.176 h 0.006 v -54.742 h 26.718 v 18.274 h 43.189 c 11.73,0 17.597,4.697 17.597,14.138 v 22.435 c 0,5.39 -1.436,9.247 -4.303,11.602" /><g
           transform="translate(223.2827,285.6968)"
           id="g26"><path
             id="path28"
             style="fill:#0c2e82;fill-opacity:1;fill-rule:nonzero;stroke:none"
             d="m 0,0 v 0 h -3.989 v -40.693 c -0.176,-0.427 -0.558,-0.747 -1.375,-0.602 0,0 -0.524,0.109 -0.893,0.501 -4.509,6.972 -21.869,30.835 -27.426,38.438 -0.013,0.031 -0.044,0.051 -0.067,0.081 h 0.016 c -0.086,0.085 -0.181,0.166 -0.276,0.239 -0.042,0.064 -0.079,0.116 -0.135,0.135 C -35.556,-0.629 -37.412,0 -39.877,0 h -21.577 c -2.715,0 -4.8,-0.773 -6.26,-2.287 -1.471,-1.535 -2.201,-3.601 -2.232,-6.152 l -0.039,-0.019 v -61.497 h 25.235 c 0,0 -0.14,32.487 -0.208,42.059 0.107,0.635 0.568,1.557 2.494,1.324 0,0 0.741,-0.055 1.057,-0.614 4.869,-7.776 36.779,-42.769 36.779,-42.769 h 26.212 l 0,69.955 z" /></g><g
           transform="translate(94.9785,242.3154)"
           id="g30"><path
             id="path32"
             style="fill:#ee3638;fill-opacity:1;fill-rule:nonzero;stroke:none"
             d="M 0,0 C 0,0 28.277,-16.243 34.167,-29.127 H 56.171 C 54.346,-24.8 43.858,-5.559 0,0" /></g><g
           transform="translate(94.9785,242.3154)"
           id="g34"><path
             id="path36"
             style="fill:none;stroke:#ffffff;stroke-width:1.43299997;stroke-linecap:butt;stroke-linejoin:miter;stroke-miterlimit:4;stroke-dasharray:none;stroke-opacity:1"
             d="M 0,0 C 0,0 28.277,-16.243 34.167,-29.127 H 56.171 C 54.346,-24.8 43.858,-5.559 0,0 Z" /></g></g></g></g></svg>